<svg xmlns="http://www.w3.org/2000/svg" width="23" height="15.34" viewBox="0 0 23 15.34">
  <path id="Icon_ionic-ios-arrow-round-back" data-name="Icon ionic-ios-arrow-round-back" d="M16.214,11.545a1.044,1.044,0,0,1,.008,1.47l-4.849,4.865H29.851a1.039,1.039,0,0,1,0,2.077H11.373l4.857,4.865a1.051,1.051,0,0,1-.008,1.47,1.034,1.034,0,0,1-1.462-.008L8.178,19.654h0a1.166,1.166,0,0,1-.216-.328.991.991,0,0,1-.08-.4,1.041,1.041,0,0,1,.3-.727l6.583-6.631A1.018,1.018,0,0,1,16.214,11.545Z" transform="translate(-7.882 -11.252)" fill="#222"/>
</svg>
