<svg xmlns="http://www.w3.org/2000/svg" width="23" height="15.34" viewBox="0 0 23 15.34">
  <path id="Icon_ionic-ios-arrow-round-back" data-name="Icon ionic-ios-arrow-round-back" d="M22.55,11.545a1.044,1.044,0,0,0-.008,1.47l4.849,4.865H8.913a1.039,1.039,0,0,0,0,2.077H27.391l-4.857,4.865a1.051,1.051,0,0,0,.008,1.47A1.034,1.034,0,0,0,24,26.285l6.583-6.631h0a1.166,1.166,0,0,0,.216-.328.991.991,0,0,0,.08-.4,1.041,1.041,0,0,0-.3-.727L24,11.569A1.018,1.018,0,0,0,22.55,11.545Z" transform="translate(-7.882 -11.252)"/>
</svg>
